<svg width="70" height="77" viewBox="0 0 70 77" fill="none" xmlns="http://www.w3.org/2000/svg">
<path d="M50.4552 56.5488L48.1811 51.3242L41.9102 52.3024L43.731 56.7763L50.4552 56.5488Z" fill="url(#paint0_linear_1723_3943)"/>
<path d="M70 51.1899V25.8101C69.9924 21.1315 67.4992 16.8169 63.4647 14.4813L41.5618 1.75732C37.5197 -0.585775 32.5332 -0.585775 28.4911 1.75732L6.53535 14.451C2.50081 16.7865 0.00755532 21.1087 0 25.7798V51.1899C0 55.8761 2.49325 60.2059 6.53535 62.549L28.4911 75.2427C32.5332 77.5858 37.5197 77.5858 41.5618 75.2427L63.4647 62.549C67.5067 60.2059 70 55.8761 70 51.1899Z" fill="#2D4DE1"/>
<path d="M38.0473 46.2782L28.6863 24.6367L15.744 55.6354C15.5929 56.0752 15.8196 56.5529 16.2578 56.7122C16.356 56.7501 16.4618 56.7652 16.5676 56.7576H21.0856L23.4656 51.2298H34.1941L32.2902 46.4071L38.0473 46.2782ZM25.6566 46.0658L28.8298 38.8166L31.7915 46.0658H25.6566Z" fill="white"/>
<path d="M31.4746 18.0583L34.4967 11.3096C34.6403 10.9911 35.0105 10.8546 35.3278 10.9987C35.4638 11.0593 35.5771 11.1731 35.6376 11.3096L53.6646 54.2285C54.0726 55.2143 53.6041 56.3517 52.6219 56.7612C52.3877 56.8597 52.1384 56.9052 51.8815 56.9128H36.6424L34.2323 51.2105H45.3462L31.4746 18.0583Z" fill="white"/>
<path d="M45.308 51.2613L42.5352 51.2461L43.0867 56.9636H47.703L45.308 51.2613Z" fill="url(#paint1_linear_1723_3943)"/>
<path d="M38.0489 46.2781L36.0014 41.5312L30.3047 42.426L31.9517 46.4829L38.0489 46.2781Z" fill="url(#paint2_linear_1723_3943)"/>
<defs>
<linearGradient id="paint0_linear_1723_3943" x1="46.1865" y1="51.3242" x2="46.1865" y2="68.3553" gradientUnits="userSpaceOnUse">
<stop offset="0.08" stop-color="white" stop-opacity="0"/>
<stop offset="0.62"/>
</linearGradient>
<linearGradient id="paint1_linear_1723_3943" x1="42.5352" y1="54.1048" x2="58.7111" y2="54.1048" gradientUnits="userSpaceOnUse">
<stop offset="0.08" stop-color="white"/>
<stop offset="1"/>
</linearGradient>
<linearGradient id="paint2_linear_1723_3943" x1="34.1806" y1="41.5312" x2="34.1806" y2="56.9775" gradientUnits="userSpaceOnUse">
<stop offset="0.08" stop-color="white"/>
<stop offset="0.62"/>
</linearGradient>
</defs>
</svg>
