<svg width="16" height="12" viewBox="0 0 16 12" fill="none" xmlns="http://www.w3.org/2000/svg">
<path d="M8 0.666016C4.36364 0.666016 1.25818 2.92783 0 6.12056C1.25818 9.31329 4.36364 11.5751 8 11.5751C11.6364 11.5751 14.7418 9.31329 16 6.12056C14.7418 2.92783 11.6364 0.666016 8 0.666016ZM8 9.75692C5.99273 9.75692 4.36364 8.12783 4.36364 6.12056C4.36364 4.11329 5.99273 2.4842 8 2.4842C10.0073 2.4842 11.6364 4.11329 11.6364 6.12056C11.6364 8.12783 10.0073 9.75692 8 9.75692ZM8 3.93874C6.79273 3.93874 5.81818 4.91329 5.81818 6.12056C5.81818 7.32783 6.79273 8.30238 8 8.30238C9.20727 8.30238 10.1818 7.32783 10.1818 6.12056C10.1818 4.91329 9.20727 3.93874 8 3.93874Z" fill="#4D4D4D"/>
</svg>
