<svg width="216" height="73" viewBox="0 0 216 73" fill="none" xmlns="http://www.w3.org/2000/svg">
<path d="M96.7567 24.7578C99.8623 24.7578 102.271 25.4839 103.989 26.9361C105.7 28.3882 106.555 30.509 106.555 33.2983V49.1499H101.458L100.02 45.9292H99.848C98.8343 47.2376 97.756 48.1722 96.6273 48.7401C95.4987 49.308 93.9386 49.5884 91.9689 49.5884C89.8481 49.5884 88.0941 48.9629 86.6994 47.7121C85.3047 46.4612 84.6074 44.5346 84.6074 41.9178C84.6074 39.301 85.4988 37.511 87.2889 36.2817C89.0717 35.0452 91.6957 34.3622 95.1464 34.2113L99.2441 34.0819V33.3845C99.2441 32.2271 98.9421 31.3788 98.3527 30.8612C97.756 30.3364 96.9364 30.0776 95.894 30.0776C94.8516 30.0776 93.7589 30.243 92.6303 30.5808C91.5016 30.9187 90.3514 31.3285 89.1868 31.8245L86.9654 26.9432C88.2738 26.2459 89.7547 25.7068 91.4081 25.3329C93.0616 24.9519 94.8517 24.765 96.7639 24.765L96.7567 24.7578ZM97.0155 38.3449C95.1895 38.4024 93.9099 38.7259 93.1838 39.3226C92.4577 39.9193 92.0911 40.7244 92.0911 41.7381C92.0911 42.6367 92.3499 43.2909 92.8747 43.7006C93.3995 44.1032 94.0681 44.3117 94.8804 44.3117C96.0953 44.3117 97.1305 43.9379 97.9716 43.2046C98.8127 42.4641 99.2369 41.4577 99.2369 40.1781V38.2658L97.0155 38.3521V38.3449Z" fill="#001F63"/>
<path d="M118.992 31.6404C118.992 32.4959 118.956 33.3945 118.891 34.3363C118.827 35.2852 118.74 36.1982 118.633 37.0753H118.755C119.1 36.5433 119.495 35.9682 119.934 35.3571C120.372 34.746 120.804 34.1853 121.235 33.6821L126.828 27.248H134.34L126.145 36.6799L134.858 49.1886H127.144L121.508 40.7919L118.992 42.7473V49.1814H112.234V23.2222L118.992 21.6406V31.6332V31.6404Z" fill="#001F63"/>
<path d="M141.177 18.5273C142.133 18.5273 142.974 18.743 143.693 19.1672C144.412 19.5913 144.771 20.418 144.771 21.6473C144.771 22.8766 144.412 23.6674 143.693 24.106C142.974 24.5445 142.133 24.7673 141.177 24.7673C140.163 24.7673 139.308 24.5445 138.596 24.106C137.891 23.6674 137.539 22.8479 137.539 21.6473C137.539 20.4468 137.891 19.5913 138.596 19.1672C139.3 18.743 140.163 18.5273 141.177 18.5273ZM144.498 27.2403V49.1881H137.783V27.2403H144.498Z" fill="#001F63"/>
<path d="M163.044 26.832C163.389 26.832 163.777 26.8536 164.202 26.8895C164.626 26.9327 164.964 26.9758 165.201 27.0333L164.64 33.3524C164.403 33.3021 164.094 33.2517 163.72 33.2086C163.346 33.1727 162.936 33.1511 162.483 33.1511C161.628 33.1511 160.787 33.2877 159.946 33.5537C159.105 33.8197 158.415 34.3229 157.868 35.049C157.322 35.7822 157.049 36.8246 157.049 38.1905V49.1824H150.291V27.2346H155.366L156.409 30.8291H156.689C157.329 29.7364 158.206 28.7946 159.328 28.011C160.449 27.2274 161.685 26.832 163.044 26.832Z" fill="#001F63"/>
<path d="M177.755 26.8008C180.609 26.8008 182.816 27.4694 184.39 28.7993C185.965 30.1364 186.748 32.0775 186.748 34.6367V49.1871H182.068L180.745 46.2253H180.587C179.653 47.4258 178.668 48.2813 177.633 48.8061C176.59 49.3237 175.167 49.5897 173.355 49.5897C171.407 49.5897 169.797 49.0146 168.517 47.8715C167.237 46.7285 166.598 44.9528 166.598 42.5517C166.598 40.1506 167.417 38.5116 169.056 37.3757C170.695 36.247 173.096 35.6072 176.274 35.4778L180.034 35.3556V34.7158C180.034 33.6518 179.761 32.8754 179.214 32.401C178.668 31.9193 177.913 31.6821 176.957 31.6821C176.001 31.6821 174.994 31.833 173.959 32.1422C172.924 32.4513 171.867 32.8251 170.803 33.278L168.762 28.7993C169.962 28.1595 171.321 27.6706 172.838 27.3184C174.355 26.9733 175.994 26.8008 177.755 26.8008ZM177.992 39.2736C176.31 39.3239 175.138 39.6258 174.477 40.1722C173.808 40.7186 173.477 41.459 173.477 42.3936C173.477 43.2203 173.715 43.817 174.196 44.1908C174.678 44.5646 175.289 44.7515 176.037 44.7515C177.158 44.7515 178.1 44.4137 178.876 43.7307C179.653 43.0478 180.034 42.1276 180.034 40.9486V39.1873L177.992 39.2664V39.2736Z" fill="#001F63"/>
<path d="M48.0096 53.6133L45.8457 48.6602L39.8789 49.5875L41.6114 53.829L48.0096 53.6133Z" fill="url(#paint0_linear_1723_3968)"/>
<path d="M66.6054 48.5307V24.4693C66.5983 20.0338 64.2259 15.9433 60.387 13.7291L39.5463 1.66603C35.7002 -0.555345 30.9555 -0.555345 27.1095 1.66603L6.21843 13.7003C2.37954 15.9145 0.00718893 20.0122 0 24.4406V48.5307C0 52.9734 2.37235 57.0783 6.21843 59.2997L27.1095 71.334C30.9555 73.5553 35.7002 73.5553 39.5463 71.334L60.387 59.2997C64.2331 57.0783 66.6054 52.9734 66.6054 48.5307Z" fill="#2D4DE1"/>
<path d="M36.2037 43.8727L27.2966 23.3555L14.982 52.7438C14.8382 53.1608 15.0539 53.6137 15.4708 53.7646C15.5643 53.8006 15.6649 53.815 15.7656 53.8078H20.0646L22.3291 48.5671H32.5374L30.7257 43.9949L36.2037 43.8727ZM24.4139 43.6714L27.4332 36.7988L30.2513 43.6714H24.4139Z" fill="white"/>
<path d="M29.9492 17.1261L32.8248 10.728C32.9614 10.426 33.3136 10.2966 33.6156 10.4332C33.745 10.4907 33.8528 10.5986 33.9103 10.728L51.0631 51.4173C51.4513 52.3519 51.0056 53.4302 50.071 53.8184C49.8482 53.9119 49.6109 53.955 49.3665 53.9622H34.8664L32.5732 48.5561H43.1481L29.9492 17.1261Z" fill="white"/>
<path d="M43.111 48.6042L40.4727 48.5898L40.9974 54.0103H45.3899L43.111 48.6042Z" fill="url(#paint1_linear_1723_3968)"/>
<path d="M36.2026 43.8714L34.2544 39.3711L28.834 40.2194L30.4012 44.0655L36.2026 43.8714Z" fill="url(#paint2_linear_1723_3968)"/>
<path d="M192.332 32.3389L198.069 15.7109H203.748L209.492 32.3389H204.985L204.143 29.3627H197.702L196.839 32.3389H192.332ZM198.68 26.1277H203.187L201.498 20.6425C201.448 20.4772 201.376 20.204 201.282 19.8374C201.189 19.4636 201.074 18.9891 200.93 18.4068C200.829 18.8166 200.736 19.2048 200.642 19.5786C200.549 19.9524 200.448 20.3047 200.355 20.6425L198.687 26.1277H198.68Z" fill="#001F63"/>
<path d="M211.195 32.3389V15.7109H215.775V32.3389H211.195Z" fill="#001F63"/>
<defs>
<linearGradient id="paint0_linear_1723_3968" x1="43.9478" y1="48.6602" x2="43.9478" y2="64.8065" gradientUnits="userSpaceOnUse">
<stop offset="0.08" stop-color="white" stop-opacity="0"/>
<stop offset="0.62"/>
</linearGradient>
<linearGradient id="paint1_linear_1723_3968" x1="40.4727" y1="51.3001" x2="55.8642" y2="51.3001" gradientUnits="userSpaceOnUse">
<stop offset="0.08" stop-color="white"/>
<stop offset="1"/>
</linearGradient>
<linearGradient id="paint2_linear_1723_3968" x1="32.5219" y1="39.3711" x2="32.5219" y2="54.015" gradientUnits="userSpaceOnUse">
<stop offset="0.08" stop-color="white"/>
<stop offset="0.62"/>
</linearGradient>
</defs>
</svg>
